<svg width="1683" height="841" viewBox="0 0 1683 841" fill="none" xmlns="http://www.w3.org/2000/svg">
<path d="M1677.27 631.82C1664.63 681.733 1629.27 723.418 1576.05 756.049C1522.83 788.681 1451.79 812.238 1367.88 825.892C1200.06 853.199 980.855 840.877 750.054 782.431C519.254 723.984 320.604 630.491 186.006 526.601C118.706 474.656 67.44 420.126 36.1674 366.098C4.89633 312.073 -6.36754 258.58 6.27203 208.667C18.9116 158.754 54.2778 117.069 107.493 84.4388C160.711 51.8067 231.752 28.2494 315.663 14.5956C483.484 -12.7116 702.689 -0.389593 933.49 58.0569C1164.29 116.503 1362.94 209.996 1497.54 313.886C1564.84 365.831 1616.1 420.361 1647.38 474.389C1678.65 528.414 1689.91 581.908 1677.27 631.82Z" stroke="url(#paint0_linear_0_1368)"/>
<defs>
<linearGradient id="paint0_linear_0_1368" x1="64.343" y1="179.859" x2="1511.55" y2="780.253" gradientUnits="userSpaceOnUse">
<stop stop-color="#484848"/>
<stop offset="0.491388" stop-color="#484848" stop-opacity="0.36"/>
<stop offset="1" stop-color="#484848"/>
</linearGradient>
</defs>
</svg>
